<?xml version="1.0" encoding="UTF-8"?>
<!DOCTYPE svg  PUBLIC '-//W3C//DTD SVG 1.1//EN'  'http://www.w3.org/Graphics/SVG/1.1/DTD/svg11.dtd'>
<svg version="1.1" viewBox="0 0 480 500" xml:space="preserve" xmlns="http://www.w3.org/2000/svg">

	
		<defs>
<linearGradient id="a" gradientUnits="userSpaceOnUse">
<stop stop-color="#5D71FF" offset="0"/>
<stop stop-color="#16EAEF" offset="1"/>
</linearGradient>
</defs>
	<path d="m453.48 210.63-148.98-124.13c-5.155-4.3-11.921-6.174-18.562-5.149-6.641 1.035-12.521 4.869-16.136 10.538l-21.416 33.57c-1.836 2.876-1.454 6.641 0.917 9.09l1.54 1.586c1.43 1.478 3.413 2.293 5.466 2.247 2.061-0.054 4.005-0.957 5.359-2.504l12.954-14.72c1.516-1.712 3.733-2.637 6.02-2.481 2.277 0.148 4.362 1.346 5.638 3.243l57.552 85.672h-209.88l57.553-85.672c1.276-1.897 3.359-3.094 5.638-3.243 2.287-0.156 4.502 0.769 6.018 2.481l12.956 14.72c1.354 1.546 3.297 2.449 5.357 2.504 2.053 0.046 4.036-0.769 5.467-2.247l1.54-1.586c2.371-2.449 2.752-6.214 0.917-9.09l-21.416-33.57c-3.617-5.67-9.495-9.503-16.136-10.538-6.641-1.026-13.406 0.849-18.563 5.149l-148.98 124.13c-14.263 5.95-24.301 20.018-24.301 36.44v110.16c0 21.804 17.675 39.48 39.48 39.48h141.36c16.184 0 30.724-9.876 36.697-24.916l21.347-53.78 21.353 53.788c5.972 15.032 20.514 24.908 36.697 24.908h141.36c21.804 0 39.48-17.676 39.48-39.48v-110.16c0-16.422-10.04-30.49-24.301-36.44zm-242.27 59.388-21.874 73.829c-2.117 7.154-8.686 12.053-16.136 12.053h-122.35c-9.293 0-16.829-7.535-16.829-16.827v-73.829c0-9.301 7.536-16.835 16.829-16.835h144.23c5.311 0 10.312 2.504 13.484 6.757 3.181 4.261 4.16 9.767 2.652 14.852zm229.37 69.055c0 9.293-7.535 16.827-16.827 16.827h-122.35c-7.45 0-14.021-4.899-16.136-12.053l-21.874-73.829c-1.51-5.085-0.529-10.591 2.652-14.853 3.173-4.254 8.173-6.757 13.483-6.757h144.23c9.293 0 16.827 7.535 16.827 16.835v73.83z" fill="url(#a)">
		 <animateTransform attributeName="transform" begin="0.1" dur="0.7s" repeatCount="indefinite" type="translate" values="0 10 ; 0 -10; 0 10"/>
		</path>
</svg>
