<svg width="20" height="20" viewBox="0 0 20 20" fill="none" xmlns="http://www.w3.org/2000/svg">
<path d="M5.61375 12.375H6.5025L6.8175 12.0712C5.715 10.7887 5.05125 9.12375 5.05125 7.3125C5.05125 3.27375 8.325 0 12.3638 0C16.4025 0 19.6763 3.27375 19.6763 7.3125C19.6763 11.3512 16.4025 14.625 12.3638 14.625C10.5525 14.625 8.8875 13.9613 7.605 12.8588L7.30125 13.1737V14.0625L1.67625 19.6763L0 18L5.61375 12.375ZM12.3638 12.375C15.165 12.375 17.4263 10.1138 17.4263 7.3125C17.4263 4.51125 15.165 2.25 12.3638 2.25C9.5625 2.25 7.30125 4.51125 7.30125 7.3125C7.30125 10.1138 9.5625 12.375 12.3638 12.375Z" fill="url(#paint0_linear)"/>
<defs>
<linearGradient id="paint0_linear" x1="9.83766" y1="0" x2="9.83766" y2="19.6763" gradientUnits="userSpaceOnUse">
<stop stop-color="#5D71FF"/>
<stop offset="1" stop-color="#16EAEF"/>
</linearGradient>
</defs>
</svg>
