<svg width="27" height="20" viewBox="0 0 27 20" fill="none" xmlns="http://www.w3.org/2000/svg">
<path d="M7.85656 16.2664L7.85654 18.1475H0L9.74863e-08 16.2664H7.85656Z" fill="url(#paint0_radial)"/>
<path d="M17.4187 6.6405e-07C12.1351 6.6405e-07 7.85656 4.28813 7.85656 9.57172C7.85656 14.8553 12.1351 19.1434 17.4187 19.1434C22.7119 19.1434 27 14.8553 27 9.57172C27 4.28813 22.7119 6.6405e-07 17.4187 6.6405e-07ZM17.4283 17.2291C13.1976 17.2291 9.7709 13.8024 9.7709 9.57172C9.7709 5.34102 13.1976 1.91434 17.4283 1.91434C21.659 1.91434 25.0857 5.34102 25.0857 9.57172C25.0857 13.8024 21.659 17.2291 17.4283 17.2291Z" fill="url(#paint1_radial)"/>
<path d="M17.9262 4.7582H16.4877V10.418L21.5225 13.3893L22.2418 12.2291L17.9262 9.71049V4.7582Z" fill="url(#paint2_radial)"/>
<path d="M17.5943 6.6405e-07L15.3572 1.88115L1.11833e-06 1.88115L1.20225e-06 0L17.5943 6.6405e-07Z" fill="url(#paint3_radial)"/>
<path d="M8.40984 10.8443V12.7254H2.4149e-07L3.3163e-07 10.8443L8.40984 10.8443Z" fill="url(#paint4_radial)"/>
<path d="M8.7418 5.42213V7.30328H2.4149e-07L3.3163e-07 5.42213L8.7418 5.42213Z" fill="url(#paint5_radial)"/>
<defs>
<radialGradient id="paint0_radial" cx="0" cy="0" r="1" gradientUnits="userSpaceOnUse" gradientTransform="translate(0 9.57172) scale(27 38.0809)">
<stop stop-color="#5D71FF"/>
<stop offset="1" stop-color="#16EAEF"/>
</radialGradient>
<radialGradient id="paint1_radial" cx="0" cy="0" r="1" gradientUnits="userSpaceOnUse" gradientTransform="translate(0 9.57172) scale(27 38.0809)">
<stop stop-color="#5D71FF"/>
<stop offset="1" stop-color="#16EAEF"/>
</radialGradient>
<radialGradient id="paint2_radial" cx="0" cy="0" r="1" gradientUnits="userSpaceOnUse" gradientTransform="translate(0 9.57172) scale(27 38.0809)">
<stop stop-color="#5D71FF"/>
<stop offset="1" stop-color="#16EAEF"/>
</radialGradient>
<radialGradient id="paint3_radial" cx="0" cy="0" r="1" gradientUnits="userSpaceOnUse" gradientTransform="translate(0 9.57172) scale(27 38.0809)">
<stop stop-color="#5D71FF"/>
<stop offset="1" stop-color="#16EAEF"/>
</radialGradient>
<radialGradient id="paint4_radial" cx="0" cy="0" r="1" gradientUnits="userSpaceOnUse" gradientTransform="translate(0 9.57172) scale(27 38.0809)">
<stop stop-color="#5D71FF"/>
<stop offset="1" stop-color="#16EAEF"/>
</radialGradient>
<radialGradient id="paint5_radial" cx="0" cy="0" r="1" gradientUnits="userSpaceOnUse" gradientTransform="translate(0 9.57172) scale(27 38.0809)">
<stop stop-color="#5D71FF"/>
<stop offset="1" stop-color="#16EAEF"/>
</radialGradient>
</defs>
</svg>
