<svg width="19" height="23" viewBox="0 0 19 23" fill="none" xmlns="http://www.w3.org/2000/svg">
<path d="M2 20.7143C2 21.9714 3.125 23 4.5 23H14.5C15.875 23 17 21.9714 17 20.7143V7H2V20.7143ZM5.075 12.5771L6.8375 10.9657L9.5 13.3886L12.15 10.9657L13.9125 12.5771L11.2625 15L13.9125 17.4229L12.15 19.0343L9.5 16.6114L6.85 19.0343L5.0875 17.4229L7.7375 15L5.075 12.5771Z" fill="#142A5B"/>
<path d="M0 5.5V2.16667H4.75L6.21154 0.5H12.7885L14.25 2.16667H19V5.5H0Z" fill="url(#paint0_linear)"/>
<defs>
<linearGradient id="paint0_linear" x1="0" y1="0.5" x2="19" y2="0.5" gradientUnits="userSpaceOnUse">
<stop stop-color="#5D71FF"/>
<stop offset="1" stop-color="#16EAEF"/>
</linearGradient>
</defs>
</svg>
